<svg xmlns="http://www.w3.org/2000/svg" viewBox="0 0 64 64">
  <defs>
    <linearGradient id="grad" x1="0%" y1="0%" x2="100%" y2="100%">
      <stop offset="0%" stop-color="#1d4ed8" />
      <stop offset="100%" stop-color="#9333ea" />
    </linearGradient>
  </defs>
  <rect width="64" height="64" rx="12" fill="url(#grad)" />
  <path
    d="M18 40c2.2 4.2 6.8 7 13.8 7 9.2 0 14.2-4.6 14.2-11.2 0-5.4-3.8-8.8-11.8-10l-4-.6c-3.2-.4-4.6-1.4-4.6-3.4 0-2.6 2.6-4.2 6.8-4.2 3.6 0 6.4 1.2 8.8 3.4l4.4-5.4C43.2 12.2 38.6 10 33 10c-9 0-14.4 4.8-14.4 11.4 0 5.8 4 9.4 11.6 10.6l4 .6c3.6.6 4.8 1.6 4.8 3.6 0 2.6-2.6 4.4-7.4 4.4-4 0-7.4-1.6-9.8-4.4z"
    fill="#fff"
  />
</svg>
